# xmcd
#
# Track frame offsets:
#	150
#	11978
#	26365
#	38126
#	48237
#	56445
#	69020
#	77893
#	92071
#	102818
#	115206
#	124505
#
# Disc length: 1751 seconds
#
# Revision: 1
# Processed by: cddbd v1.5.2PL0 Copyright (c) Steve Scherf et al.
# Submitted via: audiograbber 1.83.01
#
DISCID=8c06d50c
DTITLE=Willie Nelson - Willie Nelson [CD1 of 2)
DYEAR=2006
DGENRE=Country
TTITLE0=Is There Something On Your Mind
TTITLE1=Will You Remember Mine
TTITLE2=Night Life
TTITLE3=Pride Wins Again
TTITLE4=You Wouldn't Cross the Street to Say Goodbye
TTITLE5=Any Old Arms Won't Do
TTITLE6=Why Are You Picking on Me
TTITLE7=Rainy Day Blues
TTITLE8=Blame It on the Time
TTITLE9=Shelter of My Arms
TTITLE10=One Step Beyond
TTITLE11=Both Ends of the Candle
EXTD=
EXTT0=
EXTT1=
EXTT2=
EXTT3=
EXTT4=
EXTT5=
EXTT6=
EXTT7=
EXTT8=
EXTT9=
EXTT10=
EXTT11=
PLAYORDER=
